<svg width="1440" height="5053" viewBox="0 0 1440 5053" fill="none" xmlns="http://www.w3.org/2000/svg">
<rect width="1440" height="5053" fill="white"/>
<path d="M1407.6 1211.2C1407.6 1212.15 1407.22 1213.07 1406.55 1213.75C1405.87 1214.42 1404.95 1214.8 1404 1214.8C1403.05 1214.8 1402.13 1214.42 1401.45 1213.75C1400.78 1213.07 1400.4 1212.15 1400.4 1211.2C1400.4 1210.25 1400.78 1209.33 1401.45 1208.65C1402.13 1207.98 1403.05 1207.6 1404 1207.6C1404.95 1207.6 1405.87 1207.98 1406.55 1208.65C1407.22 1209.33 1407.6 1210.25 1407.6 1211.2V1211.2Z" fill="url(#paint0_linear_9126_463)"/>
<path d="M1413.6 1213.6C1413.6 1214.24 1413.35 1214.85 1412.9 1215.3C1412.45 1215.75 1411.84 1216 1411.2 1216C1410.56 1216 1409.95 1215.75 1409.5 1215.3C1409.05 1214.85 1408.8 1214.24 1408.8 1213.6C1408.8 1212.96 1409.05 1212.35 1409.5 1211.9C1409.95 1211.45 1410.56 1211.2 1411.2 1211.2C1411.84 1211.2 1412.45 1211.45 1412.9 1211.9C1413.35 1212.35 1413.6 1212.96 1413.6 1213.6V1213.6Z" fill="url(#paint1_linear_9126_463)"/>
<path d="M1408.8 1222C1408.8 1220.73 1408.29 1219.51 1407.39 1218.61C1406.49 1217.71 1405.27 1217.2 1404 1217.2C1402.73 1217.2 1401.51 1217.71 1400.61 1218.61C1399.71 1219.51 1399.2 1220.73 1399.2 1222V1225.6H1408.8V1222Z" fill="url(#paint2_linear_9126_463)"/>
<path d="M1399.2 1213.6C1399.2 1214.24 1398.95 1214.85 1398.5 1215.3C1398.05 1215.75 1397.44 1216 1396.8 1216C1396.16 1216 1395.55 1215.75 1395.1 1215.3C1394.65 1214.85 1394.4 1214.24 1394.4 1213.6C1394.4 1212.96 1394.65 1212.35 1395.1 1211.9C1395.55 1211.45 1396.16 1211.2 1396.8 1211.2C1397.44 1211.2 1398.05 1211.45 1398.5 1211.9C1398.95 1212.35 1399.2 1212.96 1399.2 1213.6V1213.6Z" fill="url(#paint3_linear_9126_463)"/>
<path d="M1411.2 1225.6V1222C1411.2 1220.78 1410.89 1219.58 1410.3 1218.51C1410.83 1218.38 1411.39 1218.36 1411.93 1218.48C1412.46 1218.59 1412.97 1218.82 1413.4 1219.16C1413.84 1219.49 1414.19 1219.92 1414.43 1220.42C1414.67 1220.91 1414.8 1221.45 1414.8 1222V1225.6H1411.2Z" fill="url(#paint4_linear_9126_463)"/>
<path d="M1397.7 1218.51C1397.11 1219.58 1396.8 1220.78 1396.8 1222V1225.6H1393.2V1222C1393.2 1221.45 1393.33 1220.91 1393.57 1220.41C1393.81 1219.92 1394.16 1219.49 1394.59 1219.15C1395.03 1218.82 1395.53 1218.58 1396.07 1218.47C1396.61 1218.36 1397.17 1218.38 1397.7 1218.51V1218.51Z" fill="url(#paint5_linear_9126_463)"/>
<circle cx="1403.71" cy="1217.71" r="23.5" transform="rotate(119.509 1403.71 1217.71)" stroke="url(#paint6_linear_9126_463)"/>
<circle cx="1378" cy="1227" r="1" fill="#F0868A"/>
<circle cx="1391" cy="1232" r="1" fill="#F0868A"/>
<circle cx="1395" cy="1192" r="1" fill="#F0868A"/>
<circle cx="1387.5" cy="1201.5" r="0.5" fill="#F0868A"/>
<circle cx="1389.5" cy="1195.5" r="0.5" fill="#F0868A"/>
<circle cx="1383.5" cy="1233.5" r="0.5" fill="#F0868A"/>
<defs>
<linearGradient id="paint0_linear_9126_463" x1="1404" y1="1207.6" x2="1404" y2="1214.8" gradientUnits="userSpaceOnUse">
<stop stop-color="#EF777B"/>
<stop offset="1" stop-color="#F08F92"/>
</linearGradient>
<linearGradient id="paint1_linear_9126_463" x1="1411.2" y1="1211.2" x2="1411.2" y2="1216" gradientUnits="userSpaceOnUse">
<stop stop-color="#EF777B"/>
<stop offset="1" stop-color="#F08F92"/>
</linearGradient>
<linearGradient id="paint2_linear_9126_463" x1="1404" y1="1217.2" x2="1404" y2="1225.6" gradientUnits="userSpaceOnUse">
<stop stop-color="#EF777B"/>
<stop offset="1" stop-color="#F08F92"/>
</linearGradient>
<linearGradient id="paint3_linear_9126_463" x1="1396.8" y1="1211.2" x2="1396.8" y2="1216" gradientUnits="userSpaceOnUse">
<stop stop-color="#EF777B"/>
<stop offset="1" stop-color="#F08F92"/>
</linearGradient>
<linearGradient id="paint4_linear_9126_463" x1="1412.55" y1="1218.4" x2="1412.55" y2="1225.6" gradientUnits="userSpaceOnUse">
<stop stop-color="#EF777B"/>
<stop offset="1" stop-color="#F08F92"/>
</linearGradient>
<linearGradient id="paint5_linear_9126_463" x1="1395.45" y1="1218.4" x2="1395.45" y2="1225.6" gradientUnits="userSpaceOnUse">
<stop stop-color="#EF777B"/>
<stop offset="1" stop-color="#F08F92"/>
</linearGradient>
<linearGradient id="paint6_linear_9126_463" x1="1403.71" y1="1193.71" x2="1403.71" y2="1241.71" gradientUnits="userSpaceOnUse">
<stop stop-color="#FF7D7D"/>
<stop offset="1" stop-color="#2C2E59"/>
</linearGradient>
</defs>
</svg>
